<?xml version="1.0" encoding="UTF-8" standalone="no"?>
<!-- Created with Inkscape (http://www.inkscape.org/) -->

<svg
   width="2.7753899mm"
   height="3.3786888mm"
   viewBox="0 0 2.7753899 3.3786888"
   version="1.1"
   id="svg5"
   xml:space="preserve"
   inkscape:version="1.2.2 (732a01da63, 2022-12-09)"
   sodipodi:docname="litv.svg"
   xmlns:inkscape="http://www.inkscape.org/namespaces/inkscape"
   xmlns:sodipodi="http://sodipodi.sourceforge.net/DTD/sodipodi-0.dtd"
   xmlns="http://www.w3.org/2000/svg"
   xmlns:svg="http://www.w3.org/2000/svg"><sodipodi:namedview
     id="namedview7"
     pagecolor="#ffffff"
     bordercolor="#000000"
     borderopacity="0.25"
     inkscape:showpageshadow="2"
     inkscape:pageopacity="0.0"
     inkscape:pagecheckerboard="0"
     inkscape:deskcolor="#d1d1d1"
     inkscape:document-units="mm"
     showgrid="false"
     inkscape:zoom="14.638496"
     inkscape:cx="35.488618"
     inkscape:cy="1.127165"
     inkscape:window-width="2560"
     inkscape:window-height="1351"
     inkscape:window-x="-9"
     inkscape:window-y="-9"
     inkscape:window-maximized="1"
     inkscape:current-layer="layer1" /><defs
     id="defs2" /><g
     inkscape:label="Layer 1"
     inkscape:groupmode="layer"
     id="layer1"
     transform="translate(137.4757,-137.15898)"><path
       id="path4372"
       style="fill:#c2185b;fill-opacity:1;stroke-width:0.352778"
       d="m -136.28729,137.15907 c -0.0323,0.003 -0.0744,0.0292 -0.12609,0.077 -0.0523,0.0482 -0.0854,0.0923 -0.0992,0.13229 -0.008,0.011 0.007,0.026 0.0444,0.0439 0.022,-0.003 0.0386,-0.006 0.0496,-0.006 0.0662,0 0.12777,0.0466 0.18707,0.13746 0.062,0.0882 0.0941,0.20688 0.0941,0.35295 0,0.16261 -0.0772,0.45733 -0.23151,0.88728 -0.01,0.0262 -0.0266,0.0667 -0.047,0.11421 -0.12376,-0.33389 -0.26105,-0.70792 -0.32195,-0.87953 -0.0441,-0.12678 -0.0661,-0.21516 -0.0661,-0.25374 0,-0.10473 0.19826,-0.1266 0.22582,-0.1266 0.0165,0 0.0169,-0.0829 0.0114,-0.10491 -0.15434,0.006 -0.30333,0.0165 -0.4687,0.0165 -0.17088,0 -0.26476,-0.011 -0.43564,-0.0165 -0.006,0.006 -0.006,0.10491 0,0.10491 0.0441,0 0.19827,0.0272 0.24237,0.0879 0.0606,0.0992 0.11593,0.21532 0.17105,0.35863 0.18053,0.46373 0.3182,0.83308 0.46198,1.21388 -0.0295,0.0634 -0.0659,0.1392 -0.10955,0.22944 -0.0592,0.12953 -0.10734,0.23183 -0.14314,0.30903 -0.033,0.0744 -0.0691,0.15416 -0.10491,0.24236 -0.0372,0.0909 -0.0648,0.16811 -0.0827,0.23151 -0.0196,0.0621 -0.0274,0.11558 -0.0274,0.15968 v 0.061 c 0,0.003 0.003,0.006 0.0109,0.006 0.0221,0 0.0607,-0.015 0.11576,-0.0439 0.0579,-0.0262 0.10594,-0.0553 0.14314,-0.0884 0.007,-0.004 0.009,-0.01 0.006,-0.0165 0,-0.004 -0.003,-0.01 -0.006,-0.0165 -0.004,-0.004 -0.01,-0.0107 -0.0165,-0.0217 -0.005,-0.0111 -0.006,-0.0221 -0.006,-0.0331 0,-0.0875 0.10133,-0.35087 0.30644,-0.79065 0.0533,0.14013 0.10869,0.28381 0.16847,0.4377 0.006,0.0165 0.022,0.0605 0.0331,0.0605 0.0496,0 0.10456,-0.0218 0.14314,-0.1266 0.29215,-0.70004 0.45768,-1.09124 0.73329,-1.78026 0.0551,-0.14332 0.13798,-0.32521 0.18759,-0.38033 0.0606,-0.0772 0.20912,-0.0992 0.23668,-0.0992 0.011,0 0.022,-0.0884 0.0109,-0.10491 -0.15434,0.006 -0.19809,0.0165 -0.36897,0.0165 -0.1378,0 -0.25391,-0.006 -0.39171,-0.0165 -0.022,0.0221 -0.022,0.10456 0,0.11007 0.0441,0 0.24805,0.0276 0.24805,0.14883 0,0.0661 -0.0326,0.17674 -0.0656,0.25942 -0.226,0.57878 -0.57895,1.43299 -0.601,1.4826 -0.006,-0.0103 -0.0699,-0.17723 -0.15296,-0.39998 0.017,-0.0394 0.0329,-0.077 0.047,-0.11265 l 0.10542,-0.24805 c 0.0661,-0.16536 0.12935,-0.35433 0.19275,-0.56793 0.0661,-0.21635 0.0992,-0.37467 0.0992,-0.47387 0,-0.17226 -0.052,-0.31557 -0.154,-0.42995 l -0.0388,-0.0387 c -0.0634,-0.0689 -0.124,-0.10439 -0.1819,-0.10439 h -0.0222 c -0.002,0 -0.004,-2e-4 -0.006,0 z m 1.3777,2.48564 c -0.11325,0.003 -0.20413,0.0956 -0.20413,0.20412 0,0.11576 0.0935,0.21497 0.20929,0.21497 0.11025,0 0.20412,-0.0992 0.20412,-0.21497 0,-0.11024 -0.0939,-0.20412 -0.20412,-0.20412 -0.002,0 -0.003,-5e-5 -0.005,0 z" /></g></svg>
