<?xml version="1.0" encoding="UTF-8" standalone="no"?>
<!-- Created with Inkscape (http://www.inkscape.org/) -->

<svg
   width="2.7704105mm"
   height="3.37919mm"
   viewBox="0 0 2.7704105 3.37919"
   version="1.1"
   id="svg5672"
   inkscape:version="1.2.2 (732a01da63, 2022-12-09)"
   sodipodi:docname="litr.svg"
   xmlns:inkscape="http://www.inkscape.org/namespaces/inkscape"
   xmlns:sodipodi="http://sodipodi.sourceforge.net/DTD/sodipodi-0.dtd"
   xmlns="http://www.w3.org/2000/svg"
   xmlns:svg="http://www.w3.org/2000/svg">
  <sodipodi:namedview
     id="namedview5674"
     pagecolor="#ffffff"
     bordercolor="#000000"
     borderopacity="0.25"
     inkscape:showpageshadow="2"
     inkscape:pageopacity="0.0"
     inkscape:pagecheckerboard="0"
     inkscape:deskcolor="#d1d1d1"
     inkscape:document-units="mm"
     showgrid="false"
     inkscape:zoom="14.638496"
     inkscape:cx="-25.651542"
     inkscape:cy="15.951092"
     inkscape:window-width="2560"
     inkscape:window-height="1351"
     inkscape:window-x="-9"
     inkscape:window-y="-9"
     inkscape:window-maximized="1"
     inkscape:current-layer="layer1" />
  <defs
     id="defs5669" />
  <g
     inkscape:label="Layer 1"
     inkscape:groupmode="layer"
     id="layer1"
     transform="translate(-63.68295,-88.827445)">
    <path
       id="path4347"
       style="fill:#c2185b;fill-opacity:1;stroke-width:0.352778"
       d="m 65.65651,88.827665 c -0.0331,0 -0.0772,0.0265 -0.13229,0.0775 -0.0524,0.0482 -0.0854,0.0923 -0.0992,0.13229 -0.008,0.011 0.007,0.026 0.0439,0.0439 0.022,-0.003 0.0386,-0.006 0.0496,-0.006 0.0661,0 0.12829,0.0471 0.18759,0.13798 0.062,0.0882 0.0935,0.20688 0.0935,0.35295 0,0.11438 -0.0465,0.30283 -0.13745,0.56741 -0.0882,0.26183 -0.15881,0.45475 -0.20981,0.57877 -0.0524,0.1254 -0.0965,0.22913 -0.13229,0.30903 -0.005,0.0115 -0.011,0.0245 -0.0165,0.0367 -0.1336,-0.18549 -0.24535,-0.3581 -0.3762,-0.57619 0.24804,-0.0882 0.50694,-0.34693 0.50694,-0.61702 0,-0.42995 -0.41893,-0.65061 -0.76067,-0.65061 l -5.2e-4,-5.1e-4 c -0.22049,0 -0.38602,0.006 -0.53485,0.006 -0.14332,0 -0.28646,-0.011 -0.4408,-0.0165 -0.022,0.0165 -0.0165,0.0879 0,0.10439 0.0441,0 0.24787,0.0224 0.2589,0.061 0.0165,0.0606 0.0165,0.16537 0.0165,0.28112 v 1.60403 c 0,0.11024 -3e-5,0.2148 -0.0165,0.27544 -0.011,0.0441 -0.21481,0.0605 -0.2589,0.0605 -0.0165,0.0221 -0.022,0.0941 0,0.11059 0.15434,-0.006 0.29748,-0.0165 0.4408,-0.0165 0.14883,0 0.28646,0.011 0.4408,0.0165 0.0165,-0.0165 0.0165,-0.0885 0,-0.11059 -0.0441,0 -0.24788,-0.0164 -0.2589,-0.0605 -0.022,-0.0606 -0.0217,-0.1652 -0.0217,-0.27544 v -0.70021 h 0.20361 c 0.0496,0 0.0885,0.0108 0.11059,0.0439 0.18782,0.29265 0.41496,0.63099 0.53226,0.7984 -0.18104,0.38862 -0.2713,0.63694 -0.2713,0.74414 v 0.0605 c 0,0.003 0.003,0.006 0.0114,0.006 0.0221,0 0.0607,-0.015 0.11576,-0.0439 0.0579,-0.0262 0.10594,-0.0553 0.14314,-0.0884 0.007,-0.004 0.009,-0.01 0.006,-0.0165 0,-0.004 -0.003,-0.01 -0.006,-0.0165 -0.004,-0.004 -0.01,-0.0112 -0.0165,-0.0222 -0.005,-0.0111 -0.006,-0.0221 -0.006,-0.0331 0,-0.0713 0.0468,-0.21797 0.14159,-0.43977 0.0736,0.0699 0.14787,0.0916 0.19276,0.10956 0.0772,0.0276 0.24253,0.0444 0.49609,0.0444 0.006,-0.006 0.0217,-0.0885 0.006,-0.11059 -0.20946,-0.011 -0.31953,-0.0825 -0.42426,-0.22583 -0.0404,-0.0518 -0.0783,-0.10074 -0.1142,-0.14831 0.0111,-0.0234 0.009,-0.0187 0.0217,-0.045 l 0.15503,-0.34209 c 0.0992,-0.22737 0.19947,-0.48749 0.30282,-0.78239 0.10194,-0.29765 0.15452,-0.51263 0.15452,-0.64492 0,-0.17226 -0.0525,-0.31556 -0.15452,-0.42994 l -0.0382,-0.0388 c -0.0634,-0.0689 -0.124,-0.10491 -0.1819,-0.10491 z m -1.14877,0.50178 c 0.41893,0 0.57878,0.2372 0.57878,0.56793 0,0.33073 -0.2868,0.54002 -0.58446,0.54002 h -0.20412 v -0.78807 c 0,-0.11024 2.2e-4,-0.23702 0.0222,-0.28112 0.0165,-0.0331 0.14349,-0.0388 0.18758,-0.0388 z m 1.73633,1.98438 c -0.11324,0.003 -0.20412,0.0956 -0.20412,0.20412 0,0.11576 0.0935,0.21497 0.20929,0.21497 0.11025,0 0.20412,-0.0992 0.20412,-0.21497 0,-0.11024 -0.0939,-0.20412 -0.20412,-0.20412 -0.002,0 -0.003,-5e-5 -0.005,0 z" />
  </g>
</svg>
