<svg width="8" height="8" viewBox="0 0 8 8" fill="none" xmlns="http://www.w3.org/2000/svg">
<path d="M0.567871 6.29199C0.607871 5.81999 0.635871 5.39199 0.651871 5.00799C0.675871 4.62399 0.687871 4.28799 0.687871 3.99999C0.687871 3.71199 0.675871 3.37599 0.651871 2.99199C0.635871 2.59999 0.607871 2.17199 0.567871 1.70799H0.903871C0.959871 2.11599 1.05987 2.45599 1.20387 2.72799C1.35587 2.99199 1.55587 3.20399 1.80387 3.36399C2.05987 3.52399 2.36787 3.63599 2.72787 3.69999C3.08787 3.76399 3.51187 3.79599 3.99987 3.79599C4.48787 3.79599 4.91187 3.76399 5.27187 3.69999C5.63187 3.63599 5.93587 3.52399 6.18387 3.36399C6.43987 3.20399 6.63987 2.99199 6.78387 2.72799C6.93587 2.45599 7.03987 2.11599 7.09587 1.70799H7.43187C7.39187 2.17199 7.35987 2.59999 7.33587 2.99199C7.31987 3.37599 7.31187 3.71199 7.31187 3.99999C7.31187 4.28799 7.31987 4.62399 7.33587 5.00799C7.35987 5.39199 7.39187 5.81999 7.43187 6.29199H7.09587C7.03987 5.88399 6.93587 5.54799 6.78387 5.28399C6.63987 5.01199 6.43987 4.79599 6.18387 4.63599C5.93587 4.47599 5.63187 4.36399 5.27187 4.29999C4.91187 4.23599 4.48787 4.20399 3.99987 4.20399C3.51187 4.20399 3.08787 4.23599 2.72787 4.29999C2.36787 4.36399 2.05987 4.47599 1.80387 4.63599C1.55587 4.79599 1.35587 5.01199 1.20387 5.28399C1.05987 5.54799 0.959871 5.88399 0.903871 6.29199H0.567871ZM1.70787 7.43199V7.09599C2.11587 7.03999 2.45187 6.93999 2.71587 6.79599C2.98787 6.64399 3.20387 6.44399 3.36387 6.19599C3.52387 5.93999 3.63587 5.63199 3.69987 5.27199C3.76387 4.91199 3.79587 4.48799 3.79587 3.99999C3.79587 3.51199 3.76387 3.08799 3.69987 2.72799C3.63587 2.36799 3.52387 2.06399 3.36387 1.81599C3.20387 1.55999 2.98787 1.35999 2.71587 1.21599C2.45187 1.06399 2.11587 0.959993 1.70787 0.903993V0.567993C2.17987 0.607993 2.60787 0.639993 2.99187 0.663993C3.37587 0.679993 3.71187 0.687993 3.99987 0.687993C4.28787 0.687993 4.62387 0.679993 5.00787 0.663993C5.39987 0.639993 5.82787 0.607993 6.29187 0.567993V0.903993C5.88387 0.959993 5.54387 1.06399 5.27187 1.21599C5.00787 1.35999 4.79587 1.55999 4.63587 1.81599C4.47587 2.06399 4.36387 2.36799 4.29987 2.72799C4.23587 3.08799 4.20387 3.51199 4.20387 3.99999C4.20387 4.48799 4.23587 4.91199 4.29987 5.27199C4.36387 5.63199 4.47587 5.93999 4.63587 6.19599C4.79587 6.44399 5.00787 6.64399 5.27187 6.79599C5.54387 6.93999 5.88387 7.03999 6.29187 7.09599V7.43199C5.82787 7.39199 5.39987 7.36399 5.00787 7.34799C4.62387 7.32399 4.28787 7.31199 3.99987 7.31199C3.71187 7.31199 3.37587 7.32399 2.99187 7.34799C2.60787 7.36399 2.17987 7.39199 1.70787 7.43199Z" fill="#C2185B"/>
</svg>
